<svg width="1080" height="420" viewBox="0 0 1080 420" fill="none" xmlns="http://www.w3.org/2000/svg">
<g clip-path="url(#clip0_0_1)">
<path d="M318 372.5H381.5V127L318 194.5V372.5Z" fill="white"/>
<path d="M142.5 372.5H197.5V331.5L142.5 267.5V372.5Z" fill="white"/>
<path d="M37.5 372.5V51.5H127.5L218 209.5L359.5 55L337.5 39.5L414.5 19.5L406 101.5L387.5 83.5L197.5 288.5L111.5 156.5V372.5H37.5Z" fill="white"/>
<path d="M229.5 372.5H287.5V229.5L229.5 291.5V372.5Z" fill="white"/>
<path d="M406.391 102.578L387.519 84.2158L197.867 288.84L197.431 289.31L112 158.183V373H37V51H127.79L127.934 51.252L218.093 208.657L358.746 55.0811L336.33 39.2871L415.071 18.835L406.391 102.578ZM198 331.314V373H142V266.151L198 331.314ZM288 373H229V291.303L229.135 291.158L288 228.233V373ZM382 373H317.5V194.302L382 125.739V373ZM318.5 194.698V372H381V128.261L318.5 194.698ZM230 291.697V372H287V230.767L230 291.697ZM143 372H197V331.685L143 268.849V372ZM338.671 39.7129L360.253 54.9189L217.906 210.343L217.566 209.748L127.211 52H38V372H111V154.816L197.568 287.689L387.481 82.7842L405.608 100.422L413.928 20.165L338.671 39.7129Z" fill="black"/>
<path d="M957.142 377.52C934.142 377.52 913.902 372.613 896.422 362.8C878.942 352.68 865.295 338.573 855.482 320.48C845.668 302.387 840.762 281.533 840.762 257.92C840.762 233.387 845.515 211.92 855.022 193.52C864.835 175.12 878.482 160.707 895.962 150.28C913.748 139.853 934.295 134.64 957.602 134.64C980.295 134.64 1000.08 139.7 1016.94 149.82C1033.81 159.94 1046.84 173.587 1056.04 190.76C1065.24 207.627 1069.84 226.64 1069.84 247.8C1069.84 250.867 1069.84 254.24 1069.84 257.92C1069.84 261.6 1069.54 265.433 1068.92 269.42H880.322V234H1014.18C1013.57 217.133 1007.9 203.947 997.162 194.44C986.428 184.627 973.088 179.72 957.142 179.72C945.795 179.72 935.368 182.327 925.862 187.54C916.355 192.753 908.842 200.573 903.322 211C897.802 221.12 895.042 234 895.042 249.64V262.98C895.042 277.393 897.648 289.813 902.862 300.24C908.382 310.667 915.742 318.64 924.942 324.16C934.448 329.373 945.028 331.98 956.682 331.98C969.562 331.98 980.142 329.22 988.422 323.7C997.008 318.18 1003.3 310.82 1007.28 301.62H1063.4C1059.11 316.033 1052.06 329.067 1042.24 340.72C1032.43 352.067 1020.32 361.113 1005.9 367.86C991.488 374.3 975.235 377.52 957.142 377.52Z" fill="white"/>
<path d="M703.085 372L617.525 140.16H675.485L736.665 319.56L797.845 140.16H854.885L769.325 372H703.085Z" fill="white"/>
<path d="M514.92 377.52C492.84 377.52 472.907 372.46 455.12 362.34C437.64 351.913 423.84 337.653 413.72 319.56C403.907 301.16 399 280.153 399 256.54C399 232.313 404.06 211.153 414.18 193.06C424.3 174.66 438.1 160.4 455.58 150.28C473.367 139.853 493.3 134.64 515.38 134.64C537.46 134.64 557.24 139.853 574.72 150.28C592.507 160.4 606.307 174.507 616.12 192.6C626.24 210.693 631.3 231.853 631.3 256.08C631.3 280.307 626.24 301.467 616.12 319.56C606 337.653 592.047 351.913 574.26 362.34C556.78 372.46 537 377.52 514.92 377.52ZM514.92 330.14C525.96 330.14 535.927 327.38 544.82 321.86C554.02 316.34 561.38 308.06 566.9 297.02C572.42 285.98 575.18 272.333 575.18 256.08C575.18 239.827 572.42 226.333 566.9 215.6C561.687 204.56 554.48 196.28 545.28 190.76C536.387 185.24 526.42 182.48 515.38 182.48C504.647 182.48 494.68 185.24 485.48 190.76C476.28 196.28 468.92 204.56 463.4 215.6C457.88 226.333 455.12 239.827 455.12 256.08C455.12 272.333 457.88 285.98 463.4 297.02C468.92 308.06 476.127 316.34 485.02 321.86C494.22 327.38 504.187 330.14 514.92 330.14Z" fill="white"/>
</g>
<defs>
<clipPath id="clip0_0_1">
<rect width="1080" height="420" fill="white"/>
</clipPath>
</defs>
</svg>
